<svg xmlns="http://www.w3.org/2000/svg" xmlns:xlink="http://www.w3.org/1999/xlink" width="68.493" height="58.701" viewBox="0 0 68.493 58.701">
  <defs>
    <clipPath id="clip-path">
      <rect id="Rectangle_19545" data-name="Rectangle 19545" width="68.493" height="58.701" fill="#98c6e0"/>
    </clipPath>
  </defs>
  <g id="Group_10488" data-name="Group 10488" clip-path="url(#clip-path)">
    <path id="Path_41216" data-name="Path 41216" d="M31.78,51.361v-.87q0-15.286.014-30.573a1.026,1.026,0,0,0-.715-1.129A7.093,7.093,0,0,1,27.905,15.9a.98.98,0,0,0-.746-.415c-3.647.375-7.29.79-10.934,1.2-.044,0-.084.042-.193.1.126.266.248.537.381.8,2.408,4.827,4.757,9.684,7.259,14.461a6.2,6.2,0,0,1,.422,4.784,9.76,9.76,0,0,1-9.3,7.177,53.084,53.084,0,0,1-6.637-.167A9.611,9.611,0,0,1,0,34.624a3.781,3.781,0,0,1,.37-1.681c3.156-6.386,6.351-12.752,9.52-19.131a2.708,2.708,0,0,1,2.318-1.6c4.684-.5,9.364-1.036,14.048-1.54a1.118,1.118,0,0,0,1.1-.888,6.78,6.78,0,0,1,3.8-4.161.9.9,0,0,0,.631-1.026c-.038-.711-.023-1.427-.006-2.139a2.442,2.442,0,1,1,4.884.019c.018.789-.028,1.582.025,2.368a.913.913,0,0,0,.427.655,7.941,7.941,0,0,1,3.493,3.1.975.975,0,0,0,.764.38c3.318-.344,6.632-.728,9.946-1.1,1.518-.172,3.035-.355,4.555-.513A2.438,2.438,0,0,1,58.5,8.8q4.838,9.7,9.666,19.4a4.643,4.643,0,0,1,.076,3.215,9.538,9.538,0,0,1-8.572,7.628,38.071,38.071,0,0,1-7.472-.1,9.564,9.564,0,0,1-8.154-9.057,4.162,4.162,0,0,1,.407-1.9c2.362-4.82,4.772-9.616,7.166-14.421.121-.244.225-.5.381-.841-1.99.214-3.882.415-5.773.622-1.443.158-2.887.308-4.324.506a.913.913,0,0,0-.639.463A7.44,7.44,0,0,1,36.955,19a1.994,1.994,0,0,0-.259.158v32.2h.83c4.612,0,9.225-.022,13.837.009a7.162,7.162,0,0,1,6.167,3.369A2.417,2.417,0,0,1,57.74,57.4a2.45,2.45,0,0,1-2.34,1.3q-21.175-.006-42.35,0a2.447,2.447,0,0,1-2.336-1.3,2.416,2.416,0,0,1,.218-2.664A7.174,7.174,0,0,1,17.1,51.37c4.586-.031,9.173-.009,13.76-.009h.916M50.432,26.868h11.62L56.243,15.256,50.432,26.868M12.209,20.142l-5.8,11.607H18.013l-5.8-11.607m24.459-7.89a2.443,2.443,0,1,0-2.448,2.418,2.452,2.452,0,0,0,2.448-2.418" transform="translate(0 0.001)" fill="#98c6e0"/>
  </g>
</svg>
