<svg id="Group_10588" data-name="Group 10588" xmlns="http://www.w3.org/2000/svg" xmlns:xlink="http://www.w3.org/1999/xlink" width="63.601" height="63.756" viewBox="0 0 63.601 63.756">
  <defs>
    <clipPath id="clip-path">
      <rect id="Rectangle_19633" data-name="Rectangle 19633" width="63.601" height="63.756" fill="#fff"/>
    </clipPath>
  </defs>
  <g id="Group_10589" data-name="Group 10589" clip-path="url(#clip-path)">
    <path id="Path_41248" data-name="Path 41248" d="M37.025,63.756A9.258,9.258,0,0,1,33.586,62.4a7.71,7.71,0,0,1-3.418-6.378c0-.186-.005-.373-.013-.56a.629.629,0,0,0-.056-.148H29.048l-1.021,2.27a3.388,3.388,0,0,1-2.445,5.654c-5.832.018-11.664.067-17.495-.008a8.513,8.513,0,0,1-.933-16.907c.141-.02.279-.052.453-.085a3.569,3.569,0,0,1,.911-3.01,3.377,3.377,0,0,1-.4-4.212c.919-1.489,2.408-1.683,4.065-1.52v-.949q0-15.129-.006-30.258A5.957,5.957,0,0,1,15.04.84,5.285,5.285,0,0,1,17.869.011q11.02-.015,22.04,0a5.649,5.649,0,0,1,4.178,1.923Q46.8,4.812,49.519,7.683a6,6,0,0,1,1.693,4.284q0,4.047,0,8.094v.766c.324,0,.6-.009.885,0a40.216,40.216,0,0,1,5.393.247,7.586,7.586,0,0,1,6.082,7.044c.016.269.025.539.025.809q0,13.386,0,26.772a7.819,7.819,0,0,1-5.647,7.754c-.373.108-.75.2-1.125.3ZM14.19,37.466h.859c3.486,0,6.971-.008,10.457,0a3.307,3.307,0,0,1,3.334,2.843,3.48,3.48,0,0,1-.9,2.919,3,3,0,0,1,.929,2.4,16.229,16.229,0,0,1-.772,2.538c1.118,1.443,1.115,2.768-.136,4.565.535.956,1.41.392,2.2.56v-.818q0-11.764.009-23.527a9.262,9.262,0,0,1,.208-2.1,7.8,7.8,0,0,1,7.769-6.024c3.423-.02,6.847,0,10.27,0h.705V10.844h-.76q-3.112,0-6.224,0c-.98,0-1.293-.315-1.295-1.309q-.007-3.423,0-6.847V2h-.782c-7.179,0-14.358.046-21.535-.026a4.136,4.136,0,0,0-4.366,4.375c.065,10.1.025,20.208.025,30.312v.807m47.527,4.865c0-4.481.012-8.962,0-13.443a5.893,5.893,0,0,0-6.2-6.168q-8.651-.014-17.3,0a5.91,5.91,0,0,0-6.174,6.195q-.007,13.412,0,26.824a6.41,6.41,0,0,0,.065,1.053,5.908,5.908,0,0,0,6.042,5.087c5.726.011,11.452-.062,17.177.027a6.143,6.143,0,0,0,6.413-6.382c-.1-4.4-.023-8.8-.023-13.194M11.919,61.38a6.653,6.653,0,1,0-6.632-6.668,6.642,6.642,0,0,0,6.632,6.668m6.32-21.915c-2.363,0-4.726,0-7.09,0-.968,0-1.57.543-1.565,1.378a1.4,1.4,0,0,0,1.583,1.367q7.058.005,14.117,0a1.418,1.418,0,0,0,1.607-1.355c.015-.84-.619-1.39-1.625-1.391q-3.514-.006-7.027,0m.032,4.746c-2.385,0-4.771-.005-7.156,0a1.39,1.39,0,0,0-1.529,1.3c-.028.46.074.733.645.711a10.918,10.918,0,0,1,5.126.7.755.755,0,0,0,.306.035c3.277,0,6.555.007,9.832-.005a1.339,1.339,0,0,0,1.388-1.241,1.4,1.4,0,0,0-1.518-1.5c-2.365-.01-4.729,0-7.094,0m-.6,17.006c-.017-.01.015.025.047.025,2.589,0,5.178.017,7.767,0a1.37,1.37,0,1,0-.037-2.737c-1.823-.018-3.645-.012-5.468,0a.672.672,0,0,0-.48.181c-.626.832-1.223,1.686-1.829,2.533m.705-12.256c.506.879.953,1.689,1.442,2.474a.724.724,0,0,0,.529.272q2.514.03,5.028.008a1.38,1.38,0,0,0,1.521-1.364,1.418,1.418,0,0,0-1.521-1.384c-.848-.018-1.7,0-2.545,0H18.373m1.985,7.476a1.25,1.25,0,0,0,.223.05c1.575,0,3.149.014,4.724,0a1.393,1.393,0,1,0,0-2.759c-1.326-.018-2.652-.005-3.978-.005h-.844c-.044.948-.085,1.81-.127,2.712M47.841,8.827,42.9,3.606V8.827ZM2.036,55.857c.069,1.469.344,1.7,1.755,1.492l-.32-1.492Zm-.1-1.978c1.506.216,1.8-.035,1.648-1.385-1.5-.084-1.37-.3-1.648,1.385m3.877-5.114L5.7,48.6l-2.44,1.866c.873.221,1.357.1,1.685-.57a6.879,6.879,0,0,1,.868-1.128M5.724,60.834l.1-.129a6.611,6.611,0,0,1-.716-.9c-.306-.55-.728-.613-1.469-.418l2.089,1.444" transform="translate(0 0)" fill="#fff"/>
    <path id="Path_41249" data-name="Path 41249" d="M125.855,138.939c-.013.256-.009.484-.039.706a.852.852,0,0,1-.891.853.8.8,0,0,1-.866-.861c.023-.584-.244-.736-.735-.9a6.184,6.184,0,0,1-1.447-.81,1.342,1.342,0,0,1-.44-.588.9.9,0,0,1,.347-1.149c.39-.276.71-.091.975.218a2.58,2.58,0,0,0,2.45.9c.868-.115,1.378-.482,1.506-1.165a1.92,1.92,0,0,0-.681-2.171,9.854,9.854,0,0,0-1.388-.684c-.414-.188-.848-.335-1.257-.533a2.9,2.9,0,0,1-1.756-3.014,2.87,2.87,0,0,1,2.014-2.716c.168-.063.273-.328.377-.516.044-.08,0-.2.01-.307a.9.9,0,1,1,1.791-.038c.016.184,0,.37,0,.6a10.883,10.883,0,0,1,1.09.264,3.913,3.913,0,0,1,1,.475.756.756,0,0,1,.156,1.107.784.784,0,0,1-1.021.311,9.179,9.179,0,0,0-2.15-.458,1.349,1.349,0,0,0-1.521,1.1,1.446,1.446,0,0,0,1,1.719c.641.29,1.317.5,1.955.8a3.758,3.758,0,0,1,1.762,5.24,3.258,3.258,0,0,1-2.244,1.622" transform="translate(-101.165 -104.391)" fill="#fff"/>
    <path id="Path_41250" data-name="Path 41250" d="M165.922,105.116q3.733,0,7.467,0a3.486,3.486,0,0,1,.681.042.915.915,0,0,1,.009,1.8,3.1,3.1,0,0,1-.618.041q-7.592,0-15.183,0c-.124,0-.25,0-.373-.006a.962.962,0,0,1-.974-.93.929.929,0,0,1,.966-.932c1.306-.027,2.613-.014,3.92-.015q2.053,0,4.107,0" transform="translate(-130.824 -87.628)" fill="#fff"/>
    <path id="Path_41251" data-name="Path 41251" d="M125.694,77.1c2.673,0,5.346-.011,8.019.014a1.44,1.44,0,0,1,.941.329,1.025,1.025,0,0,1,.178.89c-.09.257-.43.454-.7.611-.141.083-.365.028-.551.028H117.73c-.145,0-.291.006-.435-.007a.945.945,0,0,1-.9-.93.935.935,0,0,1,.908-.925c.558-.029,1.119-.01,1.678-.01h6.714" transform="translate(-97.031 -64.269)" fill="#fff"/>
    <path id="Path_41252" data-name="Path 41252" d="M118.819,106.972c-.456,0-.913.013-1.368,0a.97.97,0,0,1-1.05-.917.95.95,0,0,1,1.013-.951c.953-.023,1.907-.025,2.86,0a.9.9,0,0,1,.973.912c.01.56-.353.908-1,.956-.041,0-.083,0-.124,0h-1.306" transform="translate(-97.038 -87.601)" fill="#fff"/>
    <path id="Path_41253" data-name="Path 41253" d="M241.168,78.926c-.394,0-.789.022-1.182-.005a.906.906,0,0,1-.883-.938.868.868,0,0,1,.851-.9,22.816,22.816,0,0,1,2.549.005.838.838,0,0,1,.814.929.855.855,0,0,1-.844.9c-.432.039-.87.008-1.306.008v0" transform="translate(-199.327 -64.228)" fill="#fff"/>
    <path id="Path_41254" data-name="Path 41254" d="M221.708,149.373q4.233,0,8.467,0a3.2,3.2,0,0,1,3.532,3.553c0,.955.014,1.909,0,2.864a3.171,3.171,0,0,1-3.392,3.325q-4.825.008-9.65,0c-.245,0-.576.027-.714-.111-.251-.251-.555-.636-.522-.93s.421-.585.715-.79c.157-.109.443-.04.671-.04h9.276c1.331,0,1.731-.407,1.734-1.758,0-.934.014-1.868,0-2.8a1.26,1.26,0,0,0-1.424-1.422q-8.685-.013-17.37,0c-.991,0-1.436.47-1.443,1.461-.007,1.038-.01,2.075,0,3.113a1.275,1.275,0,0,0,1.388,1.4c1.016.021,2.034,0,3.051.008.734.005,1.159.348,1.166.916s-.425.949-1.139.955c-1.058.009-2.117.019-3.175,0a3.129,3.129,0,0,1-3.167-3.219c-.013-1.038-.006-2.075,0-3.113a3.132,3.132,0,0,1,3.413-3.4c2.864-.011,5.728,0,8.592,0" transform="translate(-174.814 -124.522)" fill="#fff"/>
    <path id="Path_41255" data-name="Path 41255" d="M318.769,275.659c0,1.6.009,3.194,0,4.791a2.694,2.694,0,0,1-2.881,2.877c-.519,0-1.038.013-1.556,0a2.683,2.683,0,0,1-2.687-2.7q-.027-4.978,0-9.956a2.369,2.369,0,0,1,2.206-2.424,16.086,16.086,0,0,1,2.732,0,2.328,2.328,0,0,1,2.176,2.375c.03,1.68.007,3.36.007,5.04Zm-1.88.027c0-1.6-.012-3.191.006-4.786.007-.588-.247-.83-.821-.814-.621.017-1.243,0-1.865.006a.616.616,0,0,0-.7.686c0,3.253-.007,6.505,0,9.758,0,.6.321.889.945.912.435.016.87.008,1.305,0,.861-.008,1.118-.256,1.121-1.1.005-1.554,0-3.108,0-4.661" transform="translate(-259.79 -223.572)" fill="#fff"/>
    <path id="Path_41256" data-name="Path 41256" d="M267.45,271.731c0,.54.018,1.08,0,1.618a1.963,1.963,0,0,1-1.944,1.956c-1.078.035-2.159.033-3.237,0a1.924,1.924,0,0,1-1.946-1.942c-.037-1.078-.035-2.159,0-3.237a1.892,1.892,0,0,1,1.87-1.944,32,32,0,0,1,3.359,0,1.927,1.927,0,0,1,1.9,2.047c.013.5,0,1,0,1.494m-5.224-1.635v3.338c1.045,0,2.056.009,3.066-.014.1,0,.267-.2.27-.313.021-.99.012-1.98.012-3.01Z" transform="translate(-216.991 -223.537)" fill="#fff"/>
    <path id="Path_41257" data-name="Path 41257" d="M263.836,323.295c-.518,0-1.036.014-1.553,0a1.934,1.934,0,0,1-1.972-1.908c-.042-1.1-.044-2.2,0-3.291a1.886,1.886,0,0,1,1.938-1.932c1.075-.042,2.154-.042,3.229,0a1.944,1.944,0,0,1,1.962,2.049c.016,1.014.019,2.029,0,3.043a1.987,1.987,0,0,1-2.047,2.04c-.517.013-1.035,0-1.553,0m-1.622-1.876c1.057,0,2.029.011,3-.014a.469.469,0,0,0,.333-.314c.026-.989.015-1.98.015-3.007h-3.348Z" transform="translate(-216.98 -263.54)" fill="#fff"/>
    <path id="Path_41258" data-name="Path 41258" d="M216.8,319.753c0,.518.01,1.035,0,1.553a1.943,1.943,0,0,1-1.887,1.993c-1.117.041-2.237.041-3.353,0a1.918,1.918,0,0,1-1.873-1.936q-.031-1.614,0-3.23a1.869,1.869,0,0,1,1.849-1.945c1.136-.054,2.278-.054,3.414,0a1.888,1.888,0,0,1,1.85,1.949c.015.538,0,1.076,0,1.615m-1.876-1.666H211.6v3.346c1.031,0,2.022.013,3.011-.019.111,0,.3-.265.306-.411.028-.949.014-1.9.014-2.917" transform="translate(-174.792 -263.556)" fill="#fff"/>
    <path id="Path_41259" data-name="Path 41259" d="M209.719,271.838c0-.559-.017-1.119,0-1.677a1.808,1.808,0,0,1,1.629-1.819,29.788,29.788,0,0,1,3.842,0,1.822,1.822,0,0,1,1.638,1.879q.029,1.614,0,3.23a1.935,1.935,0,0,1-1.913,1.967c-1.1.039-2.2.038-3.291,0a1.933,1.933,0,0,1-1.911-1.966c-.014-.538,0-1.077,0-1.615h0m5.21-1.626h-3.292v3.308h3.292Z" transform="translate(-174.826 -223.651)" fill="#fff"/>
    <path id="Path_41260" data-name="Path 41260" d="M263.835,224.915c-.56,0-1.122.028-1.68-.006a1.821,1.821,0,0,1-1.765-1.7c-.062-1.22-.063-2.448,0-3.669a1.869,1.869,0,0,1,1.868-1.74q1.648-.044,3.3,0a1.939,1.939,0,0,1,1.927,1.9c.039,1.1.038,2.2,0,3.3a1.912,1.912,0,0,1-1.9,1.912c-.579.029-1.162.005-1.743.005v0m-1.573-1.923h3.315v-3.279h-3.315Z" transform="translate(-217.034 -181.553)" fill="#fff"/>
    <path id="Path_41261" data-name="Path 41261" d="M318.726,221.388c0,.581.029,1.163-.007,1.742a1.848,1.848,0,0,1-1.763,1.77c-1.181.045-2.366.046-3.547,0a1.891,1.891,0,0,1-1.794-1.883q-.042-1.649,0-3.3a1.941,1.941,0,0,1,1.908-1.918q1.649-.045,3.3,0a1.929,1.929,0,0,1,1.908,1.908c.024.559,0,1.12,0,1.681h-.008m-1.893-1.666h-3.314V223h3.314Z" transform="translate(-259.76 -181.55)" fill="#fff"/>
    <path id="Path_41262" data-name="Path 41262" d="M216.8,221.392c0,.54.014,1.08,0,1.619a1.9,1.9,0,0,1-1.848,1.9c-1.14.039-2.283.038-3.423,0a1.874,1.874,0,0,1-1.84-1.895q-.034-1.649,0-3.3a1.923,1.923,0,0,1,1.9-1.913q1.649-.044,3.3,0a1.947,1.947,0,0,1,1.911,1.974c.013.539,0,1.079,0,1.619M214.9,219.7h-3.3v3.29h3.3Z" transform="translate(-174.794 -181.549)" fill="#fff"/>
    <path id="Path_41263" data-name="Path 41263" d="M61.175,300.971a.939.939,0,0,1-1.27.906,3.465,3.465,0,0,0-1.013-.235c-.215,0-.43.222-.644.344.139.186.241.432.425.545a7.758,7.758,0,0,0,1.023.446,2.4,2.4,0,0,1,1.625,2.154,2.454,2.454,0,0,1-1.326,2.592.736.736,0,0,0-.294.407.948.948,0,0,1-.9.733.977.977,0,0,1-.951-.668,1.711,1.711,0,0,0-.451-.492,6.923,6.923,0,0,1-1.053-.915.85.85,0,0,1,.237-1.215.831.831,0,0,1,1.173.1,1.627,1.627,0,0,0,.849.435,1.007,1.007,0,0,0,.8-.386.66.66,0,0,0-.348-.937c-.43-.2-.88-.362-1.308-.568a2.2,2.2,0,0,1-1.263-2.825,2.064,2.064,0,0,1,.493-.845,3.345,3.345,0,0,0,1.059-1.263c.245-.663,1.318-.55,1.571.146a.9.9,0,0,0,.673.6,1.145,1.145,0,0,1,.9.947" transform="translate(-46.834 -249.126)" fill="#fff"/>
  </g>
</svg>
