<svg id="XMLID_1_" xmlns="http://www.w3.org/2000/svg" width="23.412" height="23.412" viewBox="0 0 23.412 23.412">
  <path id="Path_11350" data-name="Path 11350" d="M23.5,11.5a.5.5,0,0,1,0,1H23v-1Z" transform="translate(-0.588 -0.294)" fill="#f0b13c"/>
  <path id="Path_11351" data-name="Path 11351" d="M12.5,11.5H23v1H12.5Z" transform="translate(-0.588 -0.294)" fill="#f0b13c"/>
  <path id="Path_11352" data-name="Path 11352" d="M21.5,24H12a.5.5,0,0,0,.5-.5V23h9A1.5,1.5,0,0,0,23,21.5v-9h.5A.5.5,0,0,0,24,12v9.5A2.5,2.5,0,0,1,21.5,24Z" transform="translate(-0.588 -0.588)" fill="#f0b13c"/>
  <path id="Path_11353" data-name="Path 11353" d="M24,2.5V12a.5.5,0,0,0-.5-.5H23v-9A1.5,1.5,0,0,0,21.5,1h-9V.5A.5.5,0,0,0,12,0h9.5A2.5,2.5,0,0,1,24,2.5Z" transform="translate(-0.588)" fill="#f0b13c"/>
  <path id="Path_11354" data-name="Path 11354" d="M20,6a.5.5,0,0,1,0,1H16a.5.5,0,0,1,0-1Z" transform="translate(-0.588 -0.153)" fill="#f0b13c"/>
  <path id="Path_11355" data-name="Path 11355" d="M20,16a.5.5,0,0,1,0,1H16a.5.5,0,0,1,0-1Z" transform="translate(-0.588 -0.409)" fill="#f0b13c"/>
  <path id="Path_11356" data-name="Path 11356" d="M20,19a.5.5,0,0,1,0,1H16a.5.5,0,0,1,0-1Z" transform="translate(-0.588 -0.486)" fill="#f0b13c"/>
  <path id="Path_11357" data-name="Path 11357" d="M12.5,23v.5a.5.5,0,0,1-1,0V23Z" transform="translate(-0.294 -0.588)" fill="#f0b13c"/>
  <path id="Path_11358" data-name="Path 11358" d="M11.5,12.5h1V23h-1Z" transform="translate(-0.294 -0.588)" fill="#f0b13c"/>
  <path id="Path_11359" data-name="Path 11359" d="M11.5,11.5h1v1h-1Z" transform="translate(-0.294 -0.294)" fill="#f0b13c"/>
  <path id="Path_11360" data-name="Path 11360" d="M11.5,1h1V11.5h-1Z" transform="translate(-0.294)" fill="#f0b13c"/>
  <path id="Path_11361" data-name="Path 11361" d="M12.5.5V1h-1V.5a.5.5,0,0,1,1,0Z" transform="translate(-0.294)" fill="#f0b13c"/>
  <path id="Path_11362" data-name="Path 11362" d="M1,11.5H11.5v1H1Z" transform="translate(0 -0.294)" fill="#f0b13c"/>
  <path id="Path_11363" data-name="Path 11363" d="M8,6A.5.5,0,0,1,8,7H6.5V6Z" transform="translate(-0.174 -0.153)" fill="#f0b13c"/>
  <path id="Path_11364" data-name="Path 11364" d="M7.85,19.15a.483.483,0,0,1,0,.7.483.483,0,0,1-.7,0L6,18.7l.7-.7Z" transform="translate(-0.16 -0.481)" fill="#f0b13c"/>
  <path id="Path_11365" data-name="Path 11365" d="M7.15,16.15a.495.495,0,0,1,.7.7L6.7,18,6,17.3Z" transform="translate(-0.16 -0.428)" fill="#f0b13c"/>
  <path id="Path_11366" data-name="Path 11366" d="M0,0H.99V.99H0Z" transform="translate(5.159 17.549) rotate(-45)" fill="#f0b13c"/>
  <path id="Path_11367" data-name="Path 11367" d="M6.5,7V8.5a.5.5,0,0,1-1,0V7Z" transform="translate(-0.141 -0.187)" fill="#f0b13c"/>
  <path id="Path_11368" data-name="Path 11368" d="M5.5,6h1V7h-1Z" transform="translate(-0.141 -0.153)" fill="#f0b13c"/>
  <path id="Path_11369" data-name="Path 11369" d="M6.5,4.5V6h-1V4.5a.5.5,0,0,1,1,0Z" transform="translate(-0.141 -0.107)" fill="#f0b13c"/>
  <path id="Path_11370" data-name="Path 11370" d="M6,17.3l-.7.7L4.15,16.85a.495.495,0,0,1,.7-.7Z" transform="translate(-0.107 -0.428)" fill="#f0b13c"/>
  <path id="Path_11371" data-name="Path 11371" d="M5.5,6V7H4A.5.5,0,0,1,4,6Z" transform="translate(0 -0.153)" fill="#f0b13c"/>
  <path id="Path_11372" data-name="Path 11372" d="M4.85,19.85a.483.483,0,0,1-.7,0,.483.483,0,0,1,0-.7L5.3,18l.7.7Z" transform="translate(-0.107 -0.481)" fill="#f0b13c"/>
  <path id="Path_11373" data-name="Path 11373" d="M1,11.5v1H.5a.5.5,0,0,1,0-1Z" transform="translate(0 -0.294)" fill="#f0b13c"/>
  <path id="Path_11374" data-name="Path 11374" d="M0,2.5A2.5,2.5,0,0,1,2.5,0H12a.5.5,0,0,0-.5.5V1h-9A1.5,1.5,0,0,0,1,2.5v9H.5A.5.5,0,0,0,0,12Z" fill="#f0b13c"/>
  <path id="Path_11375" data-name="Path 11375" d="M1,21.5A1.5,1.5,0,0,0,2.5,23h9v.5a.5.5,0,0,0,.5.5H2.5A2.5,2.5,0,0,1,0,21.5V12a.5.5,0,0,0,.5.5H1Z" transform="translate(0 -0.588)" fill="#f0b13c"/>
</svg>
