<svg xmlns="http://www.w3.org/2000/svg" width="62" height="62" viewBox="0 0 62 62">
  <g id="bank" transform="translate(-1 -1)">
    <path id="Path_11395" data-name="Path 11395" d="M62,57H61V2a1,1,0,0,0-1-1H36a1,1,0,0,0-1,1V19H26a13,13,0,1,0-15,7.637V57H2a1,1,0,0,0-1,1v4a1,1,0,0,0,1,1H62a1,1,0,0,0,1-1V58A1,1,0,0,0,62,57Zm-9,0V54a5,5,0,0,0-10,0v3H37V47H59V57Zm-2,0H45V54a3,3,0,0,1,6,0ZM59,3V45H37V3ZM35,21v2H23.359a13.052,13.052,0,0,0,1.578-2ZM3,14A11,11,0,1,1,14,25,11.013,11.013,0,0,1,3,14ZM13,26.949c.331.026.662.051,1,.051a12.9,12.9,0,0,0,6.9-2H35V57H29V54a5,5,0,0,0-10,0v3H13ZM27,57H21V54a3,3,0,0,1,6,0Zm34,4H3V59H61Z" fill="#fff"/>
    <path id="Path_11396" data-name="Path 11396" d="M40,13h6a1,1,0,0,0,1-1V6a1,1,0,0,0-1-1H40a1,1,0,0,0-1,1v6A1,1,0,0,0,40,13Zm1-6h4v4H41Z" fill="#fff"/>
    <path id="Path_11397" data-name="Path 11397" d="M50,13h6a1,1,0,0,0,1-1V6a1,1,0,0,0-1-1H50a1,1,0,0,0-1,1v6A1,1,0,0,0,50,13Zm1-6h4v4H51Z" fill="#fff"/>
    <path id="Path_11398" data-name="Path 11398" d="M40,23h6a1,1,0,0,0,1-1V16a1,1,0,0,0-1-1H40a1,1,0,0,0-1,1v6A1,1,0,0,0,40,23Zm1-6h4v4H41Z" fill="#fff"/>
    <path id="Path_11399" data-name="Path 11399" d="M50,23h6a1,1,0,0,0,1-1V16a1,1,0,0,0-1-1H50a1,1,0,0,0-1,1v6A1,1,0,0,0,50,23Zm1-6h4v4H51Z" fill="#fff"/>
    <path id="Path_11400" data-name="Path 11400" d="M40,33h6a1,1,0,0,0,1-1V26a1,1,0,0,0-1-1H40a1,1,0,0,0-1,1v6A1,1,0,0,0,40,33Zm1-6h4v4H41Z" fill="#fff"/>
    <path id="Path_11401" data-name="Path 11401" d="M50,33h6a1,1,0,0,0,1-1V26a1,1,0,0,0-1-1H50a1,1,0,0,0-1,1v6A1,1,0,0,0,50,33Zm1-6h4v4H51Z" fill="#fff"/>
    <path id="Path_11402" data-name="Path 11402" d="M16,37h6a1,1,0,0,0,1-1V30a1,1,0,0,0-1-1H16a1,1,0,0,0-1,1v6A1,1,0,0,0,16,37Zm1-6h4v4H17Z" fill="#fff"/>
    <path id="Path_11403" data-name="Path 11403" d="M26,37h6a1,1,0,0,0,1-1V30a1,1,0,0,0-1-1H26a1,1,0,0,0-1,1v6A1,1,0,0,0,26,37Zm1-6h4v4H27Z" fill="#fff"/>
    <path id="Path_11404" data-name="Path 11404" d="M22,47a1,1,0,0,0,1-1V40a1,1,0,0,0-1-1H16a1,1,0,0,0-1,1v6a1,1,0,0,0,1,1Zm-5-6h4v4H17Z" fill="#fff"/>
    <path id="Path_11405" data-name="Path 11405" d="M26,47h6a1,1,0,0,0,1-1V40a1,1,0,0,0-1-1H26a1,1,0,0,0-1,1v6A1,1,0,0,0,26,47Zm1-6h4v4H27Z" fill="#fff"/>
    <path id="Path_11406" data-name="Path 11406" d="M40,43h6a1,1,0,0,0,1-1V36a1,1,0,0,0-1-1H40a1,1,0,0,0-1,1v6A1,1,0,0,0,40,43Zm1-6h4v4H41Z" fill="#fff"/>
    <path id="Path_11407" data-name="Path 11407" d="M50,43h6a1,1,0,0,0,1-1V36a1,1,0,0,0-1-1H50a1,1,0,0,0-1,1v6A1,1,0,0,0,50,43Zm1-6h4v4H51Z" fill="#fff"/>
    <path id="Path_11408" data-name="Path 11408" d="M15,23V20.858A3.992,3.992,0,0,0,14,13a2,2,0,1,1,2-2h2a4,4,0,0,0-3-3.858V5H13V7.142A3.992,3.992,0,0,0,14,15a2,2,0,1,1-2,2H10a4,4,0,0,0,3,3.858V23Z" fill="#fff"/>
  </g>
</svg>
