<svg xmlns="http://www.w3.org/2000/svg" xmlns:xlink="http://www.w3.org/1999/xlink" width="68.521" height="79.751" viewBox="0 0 68.521 79.751">
  <defs>
    <clipPath id="clip-path">
      <rect id="Rectangle_19544" data-name="Rectangle 19544" width="68.521" height="79.751" fill="#98c6e0"/>
    </clipPath>
  </defs>
  <g id="Group_10486" data-name="Group 10486" clip-path="url(#clip-path)">
    <path id="Path_41214" data-name="Path 41214" d="M68.359,29.49c0,4.862.158,9.731-.033,14.585-.4,10.1-4.762,18.178-12.859,24.279A95.165,95.165,0,0,1,37.382,78.6c-3.405,1.552-2.887,1.507-6.153.024A93.038,93.038,0,0,1,13.066,68.341C6.359,63.24,1.907,56.739.684,48.3A62.317,62.317,0,0,1,.046,39.98C-.035,31.528.015,23.075.017,14.622c0-2.137,1.085-3.224,3.222-3.262,8.252-.147,15.8-2.735,22.916-6.708,2.094-1.169,4.087-2.527,6.077-3.87A3.022,3.022,0,0,1,36.3.788a55.551,55.551,0,0,0,22.627,9.936,54.924,54.924,0,0,0,6.465.622,2.942,2.942,0,0,1,3.127,3.2q.008,7.474,0,14.948h-.161m-34.1-12.428A22.786,22.786,0,1,0,57.1,39.79,22.824,22.824,0,0,0,34.256,17.062" transform="translate(0 0)" fill="#98c6e0"/>
    <path id="Path_41215" data-name="Path 41215" d="M104.825,141.928a6.063,6.063,0,0,1,.576-.806q4.2-4.229,8.427-8.438a2.872,2.872,0,1,1,4.034,4.045q-5.473,5.476-10.961,10.938a2.865,2.865,0,0,1-4.514-.014q-2.62-2.6-5.229-5.218a2.882,2.882,0,0,1-.255-4.254c1.2-1.22,2.952-1.121,4.328.249,1.072,1.068,2.137,2.142,3.207,3.212.041.041.094.071.387.286" transform="translate(-73.236 -100.332)" fill="#98c6e0"/>
  </g>
</svg>
