<svg xmlns="http://www.w3.org/2000/svg" width="66.025" height="66.017" viewBox="0 0 66.025 66.017">
  <g id="car-loan" transform="translate(0 -0.033)">
    <path id="Path_11409" data-name="Path 11409" d="M64.981,44.4l0-.014a46.681,46.681,0,0,0-1.3-4.79.967.967,0,0,0-1.837.606q.559,1.693.98,3.419H58.274a2.254,2.254,0,0,0-1.823,3.583l.773,1.058a6.149,6.149,0,0,0,4.948,2.51h1.785q.132,1.712.133,3.437v1.409a5.03,5.03,0,0,1-3.77,4.869,8.252,8.252,0,1,0-15.554.156H41.9V59.558a2.9,2.9,0,0,0-2.9-2.9H33.133a.967.967,0,0,0,0,1.934H39a.966.966,0,0,1,.967.963v1.088H25.877V59.558a.966.966,0,0,1,.967-.963h1.794a.967.967,0,0,0,0-1.934H26.845a2.9,2.9,0,0,0-2.9,2.9v1.088H21.234a8.25,8.25,0,1,0-16-2.837,8.182,8.182,0,0,0,.45,2.676,5.031,5.031,0,0,1-3.748-4.863V52.4a14.539,14.539,0,0,1,.134-1.967H4.248a4.69,4.69,0,0,0,3.66-1.744l1.979-2.443a1.61,1.61,0,0,0-1.253-2.624H4.908a22.744,22.744,0,0,1,1.684-1.9H21.914a1.618,1.618,0,0,0,1.389-.795,26.529,26.529,0,0,1,6.626-7.683l1.3-1.06a1.355,1.355,0,0,0-.821-2.432H26.47a44.82,44.82,0,0,1,12.411-1.75h17.6a.322.322,0,0,1,.294.193l3.481,7.9a.967.967,0,0,0,1.77-.78L58.8,28.007h1.665a.967.967,0,0,0,0-1.934H56.225V4.215a2.9,2.9,0,0,0-2.9-2.9H45.966a.967.967,0,1,0,0,1.934h7.357a.968.968,0,0,1,.967.967V26.074H38.881a46.732,46.732,0,0,0-24.567,6.973V25.18a12.6,12.6,0,0,0,8.551-5.1H37.507a1.614,1.614,0,0,0,1.612-1.612V15.894a1.614,1.614,0,0,0-1.612-1.612H25.163a12.733,12.733,0,0,0,.1-1.934H48.325a.967.967,0,1,0,0-1.934H25.066a12.622,12.622,0,0,0-.5-1.934H48.325a.967.967,0,0,0,0-1.934H23.693a12.912,12.912,0,0,0-2.625-3.3H41.461a.967.967,0,0,0,0-1.934H18.193A12.635,12.635,0,0,0,0,12.469a.967.967,0,0,0,1.934.029,10.668,10.668,0,1,1,.72,4.034.967.967,0,1,0-1.8.7A12.627,12.627,0,0,0,12.38,25.287v9.082a43.653,43.653,0,0,0-8.115,7.01A16.4,16.4,0,0,0,0,52.4v3.219a6.958,6.958,0,0,0,6.762,6.954,8.25,8.25,0,0,0,13.445,0H45.793a8.25,8.25,0,0,0,13.452,0,6.958,6.958,0,0,0,6.78-6.955V54.211A46.568,46.568,0,0,0,64.981,44.4Zm-27.8-28.186v1.934H24.018a12.584,12.584,0,0,0,.743-1.934ZM7.956,45.558,6.4,47.473A2.763,2.763,0,0,1,4.248,48.5H2.469a14.377,14.377,0,0,1,1.188-2.942h4.3Zm3.385-8.1a48.356,48.356,0,0,1,9.741-5.767h7.7l-.078.064-.013.011a28.2,28.2,0,0,0-6.958,8.027H8.579Q9.915,38.571,11.341,37.459ZM13.485,64.11A6.324,6.324,0,0,1,8.1,61.1c-.008-.012-.015-.025-.023-.037a6.251,6.251,0,0,1-.912-3.258,6.319,6.319,0,1,1,6.319,6.3Zm39.032.005a6.3,6.3,0,1,1,6.319-6.3A6.318,6.318,0,0,1,52.518,64.115ZM62.173,48.84a4.208,4.208,0,0,1-3.386-1.717l-.773-1.058a.305.305,0,0,1-.027-.331.31.31,0,0,1,.288-.176h4.971q.322,1.631.523,3.282H62.173Z" transform="translate(0 0)" fill="#fff"/>
    <path id="Path_11410" data-name="Path 11410" d="M75.916,415.155a4.248,4.248,0,1,0,4.256,4.248A4.257,4.257,0,0,0,75.916,415.155Zm0,6.562a2.314,2.314,0,1,1,2.321-2.314A2.32,2.32,0,0,1,75.916,421.717Z" transform="translate(-62.419 -361.59)" fill="#fff"/>
    <path id="Path_11411" data-name="Path 11411" d="M378.51,415.155a4.248,4.248,0,1,0,4.256,4.248A4.257,4.257,0,0,0,378.51,415.155Zm0,6.562a2.314,2.314,0,1,1,2.321-2.314A2.32,2.32,0,0,1,378.51,421.717Z" transform="translate(-325.993 -361.59)" fill="#fff"/>
    <path id="Path_11412" data-name="Path 11412" d="M243.621,242.522h0a2.245,2.245,0,0,0,2.2-1.75,69.054,69.054,0,0,1,2.419-8.161,1.613,1.613,0,0,0-1.546-2.07h-5.814a20.619,20.619,0,0,0-17.6,9.882,1.355,1.355,0,0,0,1.141,2.088Zm-2.74-10.047h5.36a68.153,68.153,0,0,0-2.3,7.864.32.32,0,0,1-.314.249h-2.243l.522-2.355a2.9,2.9,0,0,0-2.788-3.48,2.84,2.84,0,0,0-2.788,2.24l-.8,3.591-10.039-.006A18.6,18.6,0,0,1,240.882,232.475Zm-3.371,8.109.7-3.174a.917.917,0,0,1,.9-.725.952.952,0,0,1,.9,1.128l-.614,2.772Z" transform="translate(-194.3 -200.783)" fill="#fff"/>
    <path id="Path_11413" data-name="Path 11413" d="M322.361,337.668a.967.967,0,1,0,0,1.934h3.018a.967.967,0,1,0,0-1.934Z" transform="translate(-279.949 -294.095)" fill="#fff"/>
    <path id="Path_11414" data-name="Path 11414" d="M213.9,170.531H191.052a.967.967,0,0,0,0,1.934H213.9a.967.967,0,0,0,0-1.934Z" transform="translate(-165.573 -148.512)" fill="#fff"/>
    <path id="Path_11415" data-name="Path 11415" d="M325.623,140.531h-6.305a.967.967,0,0,0,0,1.934h6.305a.967.967,0,0,0,0-1.934Z" transform="translate(-277.298 -122.38)" fill="#fff"/>
    <path id="Path_11416" data-name="Path 11416" d="M44.276,44.387a2.916,2.916,0,0,0,0,4.119,2.953,2.953,0,0,0,4.119,0,2.916,2.916,0,0,0,0-4.119A2.969,2.969,0,0,0,44.276,44.387Zm2.751,2.751a.978.978,0,0,1-1.383-1.383,1.008,1.008,0,0,1,1.383,0A.979.979,0,0,1,47.027,47.138Z" transform="translate(-37.824 -37.911)" fill="#fff"/>
    <path id="Path_11417" data-name="Path 11417" d="M108.272,108.24a2.915,2.915,0,0,0,0,4.119,2.912,2.912,0,0,0,4.119-4.119A2.916,2.916,0,0,0,108.272,108.24Zm2.751,2.751a1.011,1.011,0,0,1-1.383,0,.979.979,0,0,1,0-1.383.978.978,0,1,1,1.383,1.383Z" transform="translate(-93.568 -93.512)" fill="#fff"/>
    <path id="Path_11418" data-name="Path 11418" d="M59.386,48.442,48.475,59.354a.967.967,0,0,0,0,1.368,1,1,0,0,0,1.368,0L60.754,49.81a.967.967,0,1,0-1.368-1.368Z" transform="translate(-41.977 -41.92)" fill="#fff"/>
  </g>
</svg>
