<svg xmlns="http://www.w3.org/2000/svg" width="23.753" height="23.755" viewBox="0 0 23.753 23.755">
  <path id="home" d="M23.615,10.332l0,0L13.923.64a2.187,2.187,0,0,0-3.093,0L1.145,10.325l-.01.01A2.186,2.186,0,0,0,2.59,14.061c.022,0,.045,0,.068,0h.386v7.131A2.562,2.562,0,0,0,5.6,23.754H9.394a.7.7,0,0,0,.7-.7V17.468A1.169,1.169,0,0,1,11.258,16.3h2.236a1.169,1.169,0,0,1,1.168,1.168v5.591a.7.7,0,0,0,.7.7h3.791a2.562,2.562,0,0,0,2.56-2.559V14.064h.358a2.187,2.187,0,0,0,1.548-3.732Zm-.986,2.107a.79.79,0,0,1-.562.233H21.013a.7.7,0,0,0-.7.7v7.827a1.169,1.169,0,0,1-1.168,1.168h-3.1V17.468a2.562,2.562,0,0,0-2.56-2.56H11.258a2.563,2.563,0,0,0-2.56,2.56v4.895H5.6a1.169,1.169,0,0,1-1.168-1.168V13.368a.7.7,0,0,0-.7-.7H2.671a.794.794,0,0,1-.548-1.356h0l9.69-9.689a.795.795,0,0,1,1.124,0l9.688,9.687,0,0a.8.8,0,0,1,0,1.123Zm0,0" transform="translate(-0.5 0.001)" fill="#f0b13c"/>
</svg>
