<svg xmlns="http://www.w3.org/2000/svg" width="66.025" height="63.756" viewBox="0 0 66.025 63.756">
  <g id="mortgage" transform="translate(0 -7.975)">
    <g id="Group_9826" data-name="Group 9826" transform="translate(26.182 27.33)">
      <g id="Group_9825" data-name="Group 9825">
        <path id="Path_11419" data-name="Path 11419" d="M188.553,144a4.553,4.553,0,1,0,4.553,4.553A4.553,4.553,0,0,0,188.553,144Zm0,6.83a2.277,2.277,0,1,1,2.277-2.277A2.277,2.277,0,0,1,188.553,150.83Z" transform="translate(-184 -144)" fill="#fff"/>
      </g>
    </g>
    <g id="Group_9828" data-name="Group 9828" transform="translate(39.843 40.991)">
      <g id="Group_9827" data-name="Group 9827">
        <path id="Path_11420" data-name="Path 11420" d="M284.553,240a4.553,4.553,0,1,0,4.553,4.553A4.553,4.553,0,0,0,284.553,240Zm0,6.83a2.277,2.277,0,1,1,2.277-2.277A2.277,2.277,0,0,1,284.553,246.83Z" transform="translate(-280 -240)" fill="#fff"/>
      </g>
    </g>
    <g id="Group_9830" data-name="Group 9830" transform="translate(27.654 28.802)">
      <g id="Group_9829" data-name="Group 9829" transform="translate(0 0)">
        <rect id="Rectangle_19513" data-name="Rectangle 19513" width="25.758" height="2.277" transform="translate(0 18.213) rotate(-45)" fill="#fff"/>
      </g>
    </g>
    <g id="Group_9832" data-name="Group 9832" transform="translate(0 7.974)">
      <g id="Group_9831" data-name="Group 9831" transform="translate(0 0)">
        <path id="Path_11421" data-name="Path 11421" d="M64.463,25.68,56.69,20.5h.228V12.532a1.138,1.138,0,0,0-1.138-1.138H50.088a1.138,1.138,0,0,0-1.138,1.138v2.806L38.2,8.166a1.138,1.138,0,0,0-1.264,0L10.669,25.68a3.506,3.506,0,0,0,3.89,5.835l3.655-2.436V51.236H15.937A1.138,1.138,0,0,0,14.8,50.1H5.692a1.138,1.138,0,0,0-1.138,1.138H0v2.277H4.553V64.9H0v2.277H4.553a1.138,1.138,0,0,0,1.138,1.138H14.8a1.138,1.138,0,0,0,1.138-1.138v-.434l8.5,3.529a19.694,19.694,0,0,0,14.487.161l17.585-6.706a4.143,4.143,0,0,0,2.326-2.216,4.219,4.219,0,0,0,.066-3.267,4.132,4.132,0,0,0-1.982-2.171V29.079l3.655,2.436a3.506,3.506,0,0,0,3.89-5.835ZM13.66,66.035H6.83V52.374h6.83ZM51.226,13.67h3.415v5.464l-3.415-2.277Zm5.52,46.919a1.88,1.88,0,0,1-1.054,1.01L38.107,68.3A17.416,17.416,0,0,1,25.3,68.166l-9.361-3.892V53.513h2.886A24.44,24.44,0,0,1,29.7,56.08a8.056,8.056,0,0,0,3.592.848h8.83A1.708,1.708,0,0,1,42.5,60.3c-.149.014-.295.044-.446.044H28.459V62.62h13.66c.023,0,.044-.007.068-.007a7.013,7.013,0,0,0,2.627-.557l9.518-4.04a1.808,1.808,0,0,1,1.42,0,1.88,1.88,0,0,1,1.025,1.06A1.954,1.954,0,0,1,56.746,60.589ZM42.119,54.651h-8.83a5.79,5.79,0,0,1-2.574-.608,26.726,26.726,0,0,0-10.225-2.75V27.558L37.566,16.174,54.641,27.558V55.63a4.077,4.077,0,0,0-1.2.288l-7.381,3.134a3.892,3.892,0,0,0,.042-.417A3.984,3.984,0,0,0,42.119,54.651Zm20.4-24.822a1.231,1.231,0,0,1-.682-.206L38.2,13.861a1.138,1.138,0,0,0-1.264,0L13.3,29.621a1.231,1.231,0,0,1-1.365-2.049L37.566,10.483,63.2,27.574a1.231,1.231,0,0,1-.683,2.255Z" transform="translate(0 -7.974)" fill="#fff"/>
      </g>
    </g>
    <g id="Group_9834" data-name="Group 9834" transform="translate(9.107 61.481)">
      <g id="Group_9833" data-name="Group 9833">
        <rect id="Rectangle_19514" data-name="Rectangle 19514" width="2.277" height="2.277" fill="#fff"/>
      </g>
    </g>
  </g>
</svg>
