<svg xmlns="http://www.w3.org/2000/svg" width="17.551" height="22.364" viewBox="0 0 17.551 22.364">
  <path id="notification" d="M71.986,15.787a1.3,1.3,0,0,1-1.3-1.3V9.932A6.836,6.836,0,0,0,66.13,3.495V2.265a2.265,2.265,0,1,0-4.529,0v1.23a6.836,6.836,0,0,0-4.559,6.437v4.559a1.3,1.3,0,0,1-1.3,1.3.655.655,0,0,0-.655.655v2.532a.655.655,0,0,0,.655.655h5.633v.247a2.488,2.488,0,0,0,4.975,0v-.247h5.633a.655.655,0,0,0,.655-.655V16.442a.655.655,0,0,0-.655-.655ZM62.911,2.265a.954.954,0,1,1,1.909,0v.91a6.826,6.826,0,0,0-1.909,0Zm2.132,17.611a1.177,1.177,0,0,1-2.354,0v-.247h2.354Zm6.288-1.557H56.4v-1.3a2.611,2.611,0,0,0,1.951-2.523V9.932a5.514,5.514,0,0,1,11.027,0v4.559a2.611,2.611,0,0,0,1.951,2.523Z" transform="translate(-55.09)" fill="#fff"/>
</svg>
