<svg xmlns="http://www.w3.org/2000/svg" width="62" height="62.845" viewBox="0 0 62 62.845">
  <g id="loan_1_" data-name="loan (1)" transform="translate(0 0)">
    <path id="Path_11387" data-name="Path 11387" d="M61.995,165.152c0-6.793-3.216-12.167-9.821-16.42V146.5l2-11.367a1.613,1.613,0,0,0-1.582-1.922H43.3a1.612,1.612,0,0,0-1.582,1.925l2.017,11.37v2.228a24.2,24.2,0,0,0-6.1,5.438,14.057,14.057,0,0,0-15.817-.148,13.95,13.95,0,0,0-5.134-2.116.929.929,0,0,0-.352,1.824,12.121,12.121,0,0,1,3.931,1.5c10.718,6.407,5.884,22.6-6.247,22.6a12.161,12.161,0,0,1-1.12-24.271.929.929,0,1,0-.171-1.85,14.017,14.017,0,1,0,9.09,25.605,14.048,14.048,0,0,0,16.364-.545A8.693,8.693,0,0,0,44,179h7.836a9.292,9.292,0,0,0,7.317-3.775.928.928,0,1,0-1.44-1.172,7.428,7.428,0,0,1-5.877,3.09H44a6.835,6.835,0,0,1-4.418-1.612,14.034,14.034,0,0,0-.484-20.186l-.015-.013a22.676,22.676,0,0,1,5.85-5.163h6.043c6.249,3.958,9.161,8.721,9.161,14.982,0,2.268.121,3.772-.717,5.955a.928.928,0,1,0,1.733.665c.967-2.515.841-4.293.841-6.62Zm-34.952,5.706a4.221,4.221,0,0,0,1.646.577v.941a.929.929,0,1,0,1.857,0v-1.012a2.993,2.993,0,0,0,2.341-3.185c0-2.388-1.661-3.027-3-3.54-1.057-.407-1.894-.728-1.894-1.707,0-1.124,1-1.361,1.836-1.361a3.065,3.065,0,0,1,1.572.393,1.112,1.112,0,0,0,.494.172c.48,0,.722-.557.722-.869,0-.678-1.087-1.016-2.074-1.127v-.993a.929.929,0,0,0-1.857,0v1.071a3.128,3.128,0,0,0-1.476.736,14.055,14.055,0,0,0-1.391-2.839,8.456,8.456,0,1,1,0,15.113,13.641,13.641,0,0,0,1.218-2.371Zm.531-1.612a13.945,13.945,0,0,0,.462-3.564,11.611,11.611,0,0,0,1.077.469c1.156.456,2.154.852,2.154,2.148,0,1.442-1.179,1.658-1.881,1.658a2.4,2.4,0,0,1-1.812-.711Zm14.2-3.568a12.161,12.161,0,0,1-18.4,10.43,13.4,13.4,0,0,0,1.332-1.366,10.314,10.314,0,1,0,0-18.138,13.65,13.65,0,0,0-1.33-1.369,12.168,12.168,0,0,1,18.4,10.443Zm8.543-17.366H45.592v-.957h4.725Zm.147-2.814H45.442l-1.85-10.429h8.7Zm0,0" transform="translate(0 -116.861)" fill="#fff"/>
    <path id="Path_11388" data-name="Path 11388" d="M6.616,33.154H41.564a2.6,2.6,0,0,0,2.6-2.6V12.073a2.6,2.6,0,0,0-2.6-2.6h-5.33L27.029,4.309a3.157,3.157,0,1,0-5.877,0L11.946,9.473H6.616a2.6,2.6,0,0,0-2.6,2.6V30.554a2.6,2.6,0,0,0,2.6,2.6ZM24.09,1.857a1.3,1.3,0,1,1-1.3,1.3,1.3,1.3,0,0,1,1.3-1.3Zm-1.76,3.92a3.15,3.15,0,0,0,3.52,0l6.589,3.7h-16.7Zm-16.457,6.3a.744.744,0,0,1,.743-.743H41.564a.743.743,0,0,1,.743.743V30.554a.743.743,0,0,1-.743.743H6.616a.744.744,0,0,1-.743-.743Zm0,0" transform="translate(-3.523)" fill="#fff"/>
    <path id="Path_11389" data-name="Path 11389" d="M40.064,133.74h4.748c.389,0,.584-.434.584-.854s-.195-.853-.584-.853H41.158v-8.641c0-.42-.494-.6-.973-.6s-.973.18-.973.6v9.734c0,.4.42.614.853.614Zm0,0" transform="translate(-34.398 -107.721)" fill="#fff"/>
    <path id="Path_11390" data-name="Path 11390" d="M99.329,133.834c1.976,0,3.519-.928,3.519-3.429v-4.178c0-2.5-1.543-3.43-3.519-3.43s-3.5.928-3.5,3.43V130.4C95.824,132.906,97.351,133.834,99.329,133.834Zm-1.558-7.607c0-1.183.569-1.722,1.558-1.722.973,0,1.572.539,1.572,1.722V130.4c0,1.183-.6,1.722-1.572,1.722-.989,0-1.558-.539-1.558-1.722Zm0,0" transform="translate(-84.062 -107.724)" fill="#fff"/>
    <path id="Path_11391" data-name="Path 11391" d="M162.249,132.714l.569-1.992h3.429l.569,1.992c.075.284.329.389.659.389.512,0,1.35-.352,1.2-.958l-2.89-9.42c-.135-.449-.689-.659-1.258-.659a1.216,1.216,0,0,0-1.243.659c-3,9.771-2.92,9.488-2.92,9.57,0,.728,1.689,1.171,1.887.419Zm2.276-8.117,1.3,4.6h-2.606Zm0,0" transform="translate(-140.678 -107.084)" fill="#fff"/>
    <path id="Path_11392" data-name="Path 11392" d="M238.693,133.129v-6.02l3.22,6.02c.525.958,2.1.68,2.1,0V123.4c0-.42-.494-.6-.974-.6s-.973.179-.973.6v6.02l-2.89-5.586c-.464-.884-.749-1.033-1.453-1.033-.494,0-.973.195-.973.614v9.719C236.746,133.952,238.693,133.942,238.693,133.129Zm0,0" transform="translate(-207.687 -107.724)" fill="#fff"/>
    <path id="Path_11393" data-name="Path 11393" d="M88.891,348.694a2.466,2.466,0,0,1-1.941-.836c-.2-.2-.375-.369-.6-.369a.883.883,0,0,0-.736.87c0,.662.984,1.583,2.581,1.812v.942a.928.928,0,1,0,1.857,0V350.1a3,3,0,0,0,2.341-3.184c0-4.145-4.891-2.956-4.891-5.248,0-1.124,1-1.36,1.836-1.36a3.067,3.067,0,0,1,1.572.393,1.116,1.116,0,0,0,.494.172c.48,0,.721-.557.721-.869,0-.678-1.086-1.016-2.073-1.126v-.993a.928.928,0,1,0-1.857,0v1.071a2.731,2.731,0,0,0-2.313,2.832c0,3.746,4.891,2.45,4.891,5.248,0,1.442-1.178,1.658-1.88,1.658Zm0,0" transform="translate(-75.104 -295.598)" fill="#fff"/>
    <path id="Path_11394" data-name="Path 11394" d="M33.961,329.343a.928.928,0,1,0-1.437,1.176,10.312,10.312,0,1,0-1.9-3.582.929.929,0,0,0,1.78-.531,8.444,8.444,0,1,1,1.559,2.937Zm0,0" transform="translate(-26.479 -275.174)" fill="#fff"/>
  </g>
</svg>
