<svg xmlns="http://www.w3.org/2000/svg" xmlns:xlink="http://www.w3.org/1999/xlink" width="68.825" height="68.821" viewBox="0 0 68.825 68.821">
  <defs>
    <clipPath id="clip-path">
      <rect id="Rectangle_19555" data-name="Rectangle 19555" width="68.825" height="68.821" fill="#98c6e0"/>
    </clipPath>
  </defs>
  <g id="Group_10579" data-name="Group 10579" transform="translate(0 0)">
    <g id="Group_10490" data-name="Group 10490" transform="translate(0 0)" clip-path="url(#clip-path)">
      <path id="Path_41217" data-name="Path 41217" d="M26.485,68.821c.221-2.046.447-4.092.662-6.139.175-1.67.325-3.342.512-5.01a1.387,1.387,0,0,0-.339-1.152,12.013,12.013,0,0,1-2.877-7.7c-.012-.884,0-1.769,0-2.806-.272.242-.421.362-.556.5-1.475,1.471-2.938,2.953-4.427,4.41a.717.717,0,0,0-.2.92A9.981,9.981,0,1,1,7.473,45.85a9.744,9.744,0,0,1,10.043,3.1c.106.115.206.235.35.4.169-.154.335-.293.486-.445,1.886-1.883,3.763-3.776,5.663-5.645a1.286,1.286,0,0,0,.428-1.061c-.029-.648-.011-1.3-.007-1.948A2.3,2.3,0,0,1,27.5,37.836c.431.1.844.275,1.319.434V35.907l-.581.472L23.51,31.636c.24-.218.589-.522.924-.841a1.106,1.106,0,0,0-.83-1.921c-.442.013-.885,0-1.407,0,0-1.229-.083-2.394.023-3.542a2.856,2.856,0,0,0-1.143-2.723,20.821,20.821,0,0,1-1.741-1.762c-1.269,1.692-2.481,3.3-3.668,4.916a1.229,1.229,0,0,0-.108.644c-.03,1.006.027,2.021-.08,3.019A4.41,4.41,0,0,1,6.7,29.2c-.057-.915,0-1.837-.047-2.753a1.9,1.9,0,0,0-.333-.97C5,23.665,3.634,21.891,2.307,20.088A11.061,11.061,0,0,1,8.513,2.554,10.516,10.516,0,0,1,19.819,6.511c2.875,3.67,3.138,7.739,1.1,11.923a.785.785,0,0,0,.191,1.123c.739.684,1.443,1.408,2.141,2.134.35.363.664.687,1.166.226a1.085,1.085,0,0,0,.173-1.456,4.78,4.78,0,0,0-.6-.635c-.178-.168-.381-.31-.54-.436l4.849-4.8a4.45,4.45,0,0,0,.873.943,1.883,1.883,0,0,0,1.216.263.923.923,0,0,0,.68-1.032c-.007-.446,0-.893,0-1.416h2.239c0-.759.037-1.448-.028-2.128-.015-.152-.368-.318-.594-.4a5.581,5.581,0,1,1,3.609-.091c-.671.229-.871.53-.794,1.18a12.16,12.16,0,0,1,.01,1.377h2.243a6.292,6.292,0,0,0,.024,1.424,1.948,1.948,0,0,0,.628,1.07.954.954,0,0,0,1.273-.24c.307-.325.6-.666.867-.968l4.805,4.856c-.279.244-.662.546-1,.89a1.019,1.019,0,0,0-.142,1.351.7.7,0,0,0,1.233.141c1.316-1.313,2.623-2.635,3.95-3.937a.684.684,0,0,0,.192-.864A9.534,9.534,0,0,1,51.5,6.589,9.38,9.38,0,0,1,61.657,3.775,9.634,9.634,0,0,1,68.7,11.788c.028.151.082.3.124.445v2.285a3.223,3.223,0,0,0-.133.434A9.986,9.986,0,0,1,52.64,21.125c-.6-.485-1.136-1.059-1.735-1.624-1.372,1.369-2.754,2.735-4.114,4.125a.977.977,0,0,0-.151.618c-.013,1.3-.005,2.6-.008,3.9,0,.235-.021.469-.034.737-.531,0-.978.006-1.425,0a.917.917,0,0,0-1.03.681,1.869,1.869,0,0,0,.269,1.213,4.387,4.387,0,0,0,.954.859l-4.754,4.761c-1.8-1.507-1.986-1.558-2.587-.8l2.048,2.3c-.069.012.041,0,.147-.026a3.3,3.3,0,0,1,4.171,3.229c.011.448-.008.9.009,1.344a.822.822,0,0,0,.129.5c.683.725,1.391,1.428,2.163,2.21.087-.373.146-.6.2-.836a11.079,11.079,0,0,1,21.563-.5c.142.537.25,1.084.373,1.627v2.285a1.586,1.586,0,0,0-.106.314,11.56,11.56,0,0,1-2.46,5.72q-1.921,2.5-3.777,5.057a1.774,1.774,0,0,0-.308.911c-.047.938.012,1.883-.05,2.819a4.411,4.411,0,0,1-8.77.216c-.109-1-.033-2.013-.093-3.017a1.917,1.917,0,0,0-.321-.973c-1.294-1.771-2.618-3.52-3.938-5.272a9.186,9.186,0,0,1-1.954-4c-.261-1.634-1.615-2.294-2.58-3.348-.081.911-.07,1.8-.083,2.681a12.046,12.046,0,0,1-2.877,7.7,1.391,1.391,0,0,0-.337,1.153c.189,1.667.337,3.339.512,5.009.214,2.046.44,4.091.661,6.137Zm6.832-24.458V43.49q0-6.518,0-13.035a3,3,0,0,0-.078-.8,1.086,1.086,0,0,0-2.084,0,3.007,3.007,0,0,0-.074.8q-.006,6.551,0,13.1v.83h-2.2c0-.778.02-1.469,0-2.157a2.115,2.115,0,0,0-2.192-2.2,1.589,1.589,0,0,0-.04.254c0,2.889-.044,5.779.018,8.667a9.919,9.919,0,0,0,2.3,6.107,1.1,1.1,0,0,0,.959.461q4.5-.03,9,0a1.089,1.089,0,0,0,.952-.474,10.28,10.28,0,0,0,2.314-6.514c.016-2.307,0-4.614,0-6.92,0-1.1-.385-1.66-1.13-1.653s-1.11.559-1.111,1.673c0,.908,0,1.816,0,2.707h-2.2c0-1.773.005-3.495,0-5.216,0-.878-.424-1.372-1.131-1.365s-1.1.5-1.107,1.389c-.007,1.5,0,3,0,4.5v.715ZM11.1,24.43c.783,0,1.568.025,2.349-.015a.986.986,0,0,0,.662-.326c1.463-1.922,2.984-3.808,4.324-5.814a8.4,8.4,0,0,0,.5-9.091,8.4,8.4,0,0,0-7.725-4.721A8.4,8.4,0,0,0,3.28,9.179a8.435,8.435,0,0,0,.563,9.205c1.333,1.959,2.812,3.817,4.253,5.7a1.076,1.076,0,0,0,.724.331c.758.043,1.521.015,2.282.015M57.7,57.709c.784,0,1.569.023,2.351-.014a.985.985,0,0,0,.671-.3c1.478-1.941,3.029-3.838,4.362-5.876a8.379,8.379,0,0,0,.156-9.56,8.409,8.409,0,0,0-8.572-4.141,8.846,8.846,0,0,0-6.236,13.842c1.354,1.947,2.823,3.815,4.262,5.7a.982.982,0,0,0,.655.333c.782.041,1.567.016,2.351.016M66.6,13.42a7.761,7.761,0,1,0-7.945,7.673A7.79,7.79,0,0,0,66.6,13.42M2.236,55.505a7.76,7.76,0,1,0,7.771-7.777,7.8,7.8,0,0,0-7.771,7.777m22.2-28.822c.243.1.452.171.653.262a3.133,3.133,0,0,1,1.8,3.773,1.557,1.557,0,0,0,.636,2.057c.12.1.2.258.338.322.193.092.469.228.612.155a.85.85,0,0,0,.382-.58,12.789,12.789,0,0,0,.018-1.409,5.344,5.344,0,0,1,.494-3.068c.077-.119-.011-.383-.082-.555a5.413,5.413,0,0,1-.341-3.031,5.547,5.547,0,1,1,7.2,6.185c-.205.069-.408.146-.6.214v4.468c.143-.312.229-.515.327-.712A3.155,3.155,0,0,1,39.7,33.079a1.38,1.38,0,0,0,1.841-.544,1.424,1.424,0,0,1,.286-.284c.429-.293.45-.623.217-1.078a2.393,2.393,0,0,1-.231-1.035,3.374,3.374,0,0,1,2.577-3.458c0-.653.028-1.3-.018-1.947a.732.732,0,0,0-.38-.5,3.351,3.351,0,0,1-1.878-4.593.677.677,0,0,0-.055-.568c-.417-.52-.882-1-1.3-1.461-.34.146-.522.231-.709.3A3.132,3.132,0,0,1,36.1,16.592a1.662,1.662,0,0,0-2.016-1.046,1.3,1.3,0,0,1-.335,0c-.375-.056-.536.114-.675.463a3.28,3.28,0,0,1-3.455,2.112,11.106,11.106,0,0,1-1.551-.438c-.4.421-.852.859-1.249,1.341a.732.732,0,0,0-.1.615,3.352,3.352,0,0,1-1.882,4.591.679.679,0,0,0-.376.437c-.042.667-.018,1.338-.018,2.016M38.965,57.769h-9.1l-.869,8.778H39.8c0-.156.009-.264,0-.37-.274-2.783-.55-5.566-.832-8.407M34.387,8.875a3.322,3.322,0,1,0-3.308-3.35,3.351,3.351,0,0,0,3.308,3.35m.9,19.808a3.251,3.251,0,0,0,2.271-4.227,3.325,3.325,0,0,0-4.417-2,3.2,3.2,0,0,0-1.752,4.268,3.414,3.414,0,0,1,3.9,1.957m-26.4-2.016c0,.844-.045,1.628.011,2.4a2.166,2.166,0,0,0,2.088,1.993,2.127,2.127,0,0,0,2.272-1.769,21.9,21.9,0,0,0,.021-2.628Zm46.621,33.31c0,.794-.016,1.51,0,2.226a2.21,2.21,0,0,0,1.989,2.171,2.133,2.133,0,0,0,2.358-1.74,18.562,18.562,0,0,0,.025-2.656Z" transform="translate(0 0)" fill="#98c6e0"/>
      <path id="Path_41218" data-name="Path 41218" d="M41.636,47.881H39.481a3.784,3.784,0,0,1,1.578-3.956c.682-.469,1.337-.978,1.991-1.487a1.817,1.817,0,0,0,.716-2.129,1.864,1.864,0,0,0-1.86-1.269c-1.687-.046-2.273.455-2.531,2.2H37.255a3.847,3.847,0,0,1,1.479-3.493,4.754,4.754,0,0,1,4.839-.583,3.733,3.733,0,0,1,2.493,3.374,3.873,3.873,0,0,1-1.473,3.5,22.107,22.107,0,0,1-1.984,1.5,1.774,1.774,0,0,0-.947,1.84,2.966,2.966,0,0,1-.026.509" transform="translate(-30.554 -30.163)" fill="#98c6e0"/>
      <rect id="Rectangle_19546" data-name="Rectangle 19546" width="2.126" height="2.131" transform="translate(8.93 20.028)" fill="#98c6e0"/>
      <path id="Path_41219" data-name="Path 41219" d="M301.278,233.379h-2.1a3.743,3.743,0,0,1,1.543-3.954c.7-.484,1.372-1.007,2.042-1.531a1.786,1.786,0,0,0,.694-2.075,1.822,1.822,0,0,0-1.842-1.282c-1.73-.046-2.309.435-2.547,2.157h-2.1a3.938,3.938,0,0,1,2.707-4.17,4.84,4.84,0,0,1,5.081,1.165,4.054,4.054,0,0,1-.417,5.773A19.974,19.974,0,0,1,302.3,231a1.846,1.846,0,0,0-.981,1.9,2.323,2.323,0,0,1-.046.484" transform="translate(-243.612 -182.345)" fill="#98c6e0"/>
      <rect id="Rectangle_19547" data-name="Rectangle 19547" width="2.119" height="2.163" transform="translate(55.551 53.309)" fill="#98c6e0"/>
      <rect id="Rectangle_19548" data-name="Rectangle 19548" width="2.129" height="2.132" transform="translate(53.332 12.252)" fill="#98c6e0"/>
      <rect id="Rectangle_19549" data-name="Rectangle 19549" width="2.132" height="2.138" transform="translate(57.77 12.249)" fill="#98c6e0"/>
      <rect id="Rectangle_19550" data-name="Rectangle 19550" width="2.121" height="2.131" transform="translate(62.217 12.252)" fill="#98c6e0"/>
      <rect id="Rectangle_19551" data-name="Rectangle 19551" width="2.161" height="2.097" transform="translate(4.463 54.454)" fill="#98c6e0"/>
      <rect id="Rectangle_19552" data-name="Rectangle 19552" width="2.155" height="2.12" transform="translate(8.917 54.449)" fill="#98c6e0"/>
      <rect id="Rectangle_19553" data-name="Rectangle 19553" width="2.149" height="2.121" transform="translate(13.36 54.432)" fill="#98c6e0"/>
      <rect id="Rectangle_19554" data-name="Rectangle 19554" width="2.103" height="2.149" transform="translate(33.363 4.475)" fill="#98c6e0"/>
    </g>
  </g>
</svg>
