<svg xmlns="http://www.w3.org/2000/svg" width="31.776" height="31.776" viewBox="0 0 31.776 31.776">
  <g id="XMLID_281_" transform="translate(0 -0.001)">
    <path id="XMLID_283_" d="M251.416,188.507a.624.624,0,0,1,.671.562.509.509,0,1,0,1.019,0,1.6,1.6,0,0,0-1.18-1.507v-.071a.509.509,0,0,0-1.019,0v.071a1.6,1.6,0,0,0-1.18,1.507,1.64,1.64,0,0,0,1.689,1.58.571.571,0,1,1-.671.562.509.509,0,1,0-1.019,0,1.6,1.6,0,0,0,1.18,1.507v.071a.509.509,0,0,0,1.019,0v-.071a1.6,1.6,0,0,0,1.18-1.507,1.64,1.64,0,0,0-1.69-1.58.571.571,0,1,1,0-1.123Z" transform="translate(-233.814 -174.711)" fill="#fff"/>
    <path id="XMLID_1217_" d="M31.683,20.734a2.373,2.373,0,0,0-3.4-1.436,10.936,10.936,0,0,0-.448-5.275.621.621,0,0,0-1.174.4,9.689,9.689,0,0,1,.02,6.207l-4.946,4.393a4.988,4.988,0,0,1-1,.687,2.382,2.382,0,0,0-1.284-2.722l-4.382-2.1A7.965,7.965,0,0,0,8.925,20.6l-.445.164a9.586,9.586,0,0,1,2.272-10.012l4.382-4.382h4.851L23.7,10.082a.621.621,0,1,0,.878-.878L21.026,5.657l1.282-3.69A1.117,1.117,0,0,0,20.464.811l-.008.008a.659.659,0,0,1-.931,0,2.8,2.8,0,0,0-3.951,0,.658.658,0,0,1-.931,0A1.117,1.117,0,0,0,12.8,1.977l1.288,3.681L9.873,9.873a10.87,10.87,0,0,0-2.56,11.318l-.978.359a1.777,1.777,0,0,0-1.411-.7H1.779A1.781,1.781,0,0,0,0,22.633V30a1.781,1.781,0,0,0,1.779,1.779H18.137A9.766,9.766,0,0,0,24.979,29l6.077-5.906A2.37,2.37,0,0,0,31.683,20.734ZM15.11,2.252A1.887,1.887,0,0,0,16.453,1.7a1.554,1.554,0,0,1,2.2,0,1.9,1.9,0,0,0,2.346.271L19.9,5.128H15.219l-1.1-3.157a1.887,1.887,0,0,0,1,.281ZM1.241,30V22.633a.539.539,0,0,1,.538-.538H4.924a.539.539,0,0,1,.538.538V30a.539.539,0,0,1-.538.538H1.779A.538.538,0,0,1,1.241,30ZM30.191,22.2,24.114,28.11a8.531,8.531,0,0,1-5.977,2.426H6.62A1.772,1.772,0,0,0,6.7,30v-7.26l2.649-.973a6.717,6.717,0,0,1,5.187.246l4.382,2.1a1.142,1.142,0,0,1,.48,1.627,1.14,1.14,0,0,1-1.32.491l-5.821-1.851a.621.621,0,1,0-.376,1.183l5.821,1.851a2.39,2.39,0,0,0,.725.113l.087,0a6.217,6.217,0,0,0,4.043-1.568s4.32-3.991,6.089-5.408.637-.335.988-.261a1.133,1.133,0,0,1,.554,1.92Z" transform="translate(0 0)" fill="#fff"/>
    <path id="XMLID_1298_" d="M409.248,180.009a.51.51,0,1,0-.36-.149A.511.511,0,0,0,409.248,180.009Z" transform="translate(-383.186 -167.799)" fill="#fff"/>
  </g>
</svg>
