<svg xmlns="http://www.w3.org/2000/svg" xmlns:xlink="http://www.w3.org/1999/xlink" width="118" height="118" viewBox="0 0 118 118">
  <defs>
    <filter id="Path_174" x="0" y="0" width="118" height="118" filterUnits="userSpaceOnUse">
      <feOffset dy="3" input="SourceAlpha"/>
      <feGaussianBlur stdDeviation="3" result="blur"/>
      <feFlood flood-opacity="0.302"/>
      <feComposite operator="in" in2="blur"/>
      <feComposite in="SourceGraphic"/>
    </filter>
  </defs>
  <g id="Group_79" data-name="Group 79" transform="translate(9 6)">
    <g transform="matrix(1, 0, 0, 1, -9, -6)" filter="url(#Path_174)">
      <path id="Path_174-2" data-name="Path 174" d="M50,0a50,50,0,1,0,50,50A50.058,50.058,0,0,0,50,0ZM77.945,36.842,45.99,68.546a4.917,4.917,0,0,1-6.892.125L22.18,53.258a5.082,5.082,0,0,1-.376-7.018,4.958,4.958,0,0,1,7.018-.251L42.231,58.271,70.8,29.7a5.051,5.051,0,1,1,7.143,7.143Z" transform="translate(9 6)" fill="#2662b0"/>
    </g>
  </g>
</svg>
