<svg id="Group_10576" data-name="Group 10576" xmlns="http://www.w3.org/2000/svg" xmlns:xlink="http://www.w3.org/1999/xlink" width="68.521" height="57.99" viewBox="0 0 68.521 57.99">
  <defs>
    <clipPath id="clip-path">
      <rect id="Rectangle_19543" data-name="Rectangle 19543" width="68.521" height="57.99" fill="#98c6e0"/>
    </clipPath>
  </defs>
  <g id="Group_10484" data-name="Group 10484" transform="translate(0 0)" clip-path="url(#clip-path)">
    <path id="Path_41212" data-name="Path 41212" d="M142.707,103.077a2.037,2.037,0,0,1-2.2,1.242c-1.018-.061-2.042-.013-3-.013-1.481,13.087-8.04,22.251-20.67,26.278-9.531,3.039-18.427,1.053-26.5-5l6.075-7.111c7.343,4.963,14.885,5.593,22.53.938a18.988,18.988,0,0,0,8.98-15.108h-3.192c-.334,0-.669-.007-1,0a1.684,1.684,0,0,1-1.3-2.84q2-2.3,4-4.59c1.948-2.234,3.9-4.468,5.9-6.765.661.751,1.3,1.474,1.937,2.2q3.8,4.362,7.6,8.728c.3.348.564.732.844,1.1Z" transform="translate(-74.186 -74.001)" fill="#98c6e0"/>
    <path id="Path_41213" data-name="Path 41213" d="M53.8,7.532l-6.051,7.077c-7.732-6.155-15.882-7.235-24.335-1.893A18.83,18.83,0,0,0,14.8,30.248c1.278,0,2.566-.007,3.853,0a3.207,3.207,0,0,1,.989.1,1.675,1.675,0,0,1,.582,2.791c-1.792,2.076-3.6,4.138-5.4,6.206l-4.444,5.1c-.946-1.081-1.865-2.129-2.78-3.179Q4.107,37.262.611,33.255a1.749,1.749,0,0,1-.453-2.012,1.731,1.731,0,0,1,1.8-1c1.09.024,2.18.006,3.356.006a28.71,28.71,0,0,1,9.37-22.617A27.183,27.183,0,0,1,27.709.75C37.5-1.347,46.18.965,53.8,7.532" transform="translate(0 0)" fill="#98c6e0"/>
  </g>
</svg>
